<?xml version="1.0" encoding="UTF-8" standalone="no"?>
<!DOCTYPE svg PUBLIC "-//W3C//DTD SVG 1.1//EN"
 "http://www.w3.org/Graphics/SVG/1.1/DTD/svg11.dtd">
<!-- Generated by graphviz version 2.30.1 (20201013.1554)
 -->
<!-- Title: snakemake_dag Pages: 1 -->
<svg width="556pt" height="44pt"
 viewBox="0.00 0.00 556.00 44.00" xmlns="http://www.w3.org/2000/svg" xmlns:xlink="http://www.w3.org/1999/xlink">
<g id="graph0" class="graph" transform="scale(1 1) rotate(0) translate(4 40)">
<title>snakemake_dag</title>
<polygon fill="white" stroke="white" points="-4,5 -4,-40 553,-40 553,5 -4,5"/>
<!-- 0 -->
<g id="node1" class="node"><title>0</title>
<path fill="none" stroke="#59d856" stroke-width="2" d="M536,-36C536,-36 12,-36 12,-36 6,-36 0,-30 0,-24 0,-24 0,-12 0,-12 0,-6 6,-0 12,-0 12,-0 536,-0 536,-0 542,-0 548,-6 548,-12 548,-12 548,-24 548,-24 548,-30 542,-36 536,-36"/>
<text text-anchor="middle" x="274" y="-21" font-family="sans" font-size="10.00">openfiles</text>
<text text-anchor="middle" x="274" y="-10" font-family="sans" font-size="10.00">sample: 20221101_Rad21&#45;Halo_SPT_denoising_control_clean_1_FullseqTIRF&#45;Cy5&#45;mCherryGFPWithSMB.stk.tif</text>
</g>
</g>
</svg>
